<svg width="24" height="24" viewBox="0 0 24 24" fill="none" xmlns="http://www.w3.org/2000/svg">
<g clip-path="url(#clip0_88_171)">
<path fill-rule="evenodd" clip-rule="evenodd" d="M24 12C24 5.3731 18.6268 0 12 0C5.3731 0 0 5.3731 0 12C0 17.989 4.38762 22.9537 10.1252 23.855V15.4696H7.07748V12H10.1252V9.35562C10.1252 6.34842 11.9173 4.68622 14.6579 4.68622C15.9707 4.68622 17.3443 4.92077 17.3443 4.92077V7.87398H15.8307C14.3406 7.87398 13.8748 8.79875 13.8748 9.7488V11.9999H17.2025L16.671 15.4695H13.8747V23.8548C19.6123 22.9553 23.9998 17.9907 23.9998 11.9999L24 12Z" fill="#1977F3"/>
<path fill-rule="evenodd" clip-rule="evenodd" d="M16.6711 15.4696L17.2027 12H13.875V9.74888C13.875 8.8005 14.339 7.87406 15.8308 7.87406H17.3446V4.92085C17.3446 4.92085 15.971 4.68628 14.658 4.68628C11.9175 4.68628 10.1254 6.34685 10.1254 9.3557V12.0001H7.07764V15.4697H10.1254V23.8551C10.7362 23.9511 11.3623 24.0001 12.0002 24.0001C12.6381 24.0001 13.2641 23.9494 13.875 23.8551V15.4697H16.6712L16.6711 15.4696Z" fill="#FEFEFE"/>
</g>
<defs>
<clipPath id="clip0_88_171">
<rect width="24" height="24" fill="white"/>
</clipPath>
</defs>
</svg>
