<svg width="24" height="24" viewBox="0 0 24 24" fill="none" xmlns="http://www.w3.org/2000/svg">
<g clip-path="url(#clip0_88_179)">
<path d="M12.0106 5.88558C11.7995 5.88558 11.5908 5.89635 11.3851 5.91742C11.1795 5.93848 10.9766 5.9697 10.7773 6.01067C10.5779 6.05165 10.3821 6.1024 10.1902 6.1623L9.62688 6.36912L9.0906 6.62807L8.58453 6.936L8.11168 7.28968L7.67535 7.68603L7.27861 8.12198L6.92455 8.5943L6.61623 9.0999L6.35713 9.63556C6.27925 9.81878 6.20996 10.0066 6.15 10.1984C6.09003 10.3901 6.03928 10.5859 5.99821 10.785C5.95716 10.9842 5.92595 11.1867 5.9048 11.3923C5.88366 11.5978 5.87305 11.8063 5.87305 12.0171C5.87305 12.2279 5.88381 12.4365 5.9048 12.642C5.92568 12.8459 5.95685 13.0486 5.99821 13.2493C6.03928 13.4492 6.09003 13.6442 6.15 13.836C6.20996 14.0277 6.27916 14.2155 6.35713 14.3988L6.61623 14.9344L6.92455 15.44L7.27861 15.9124L7.67535 16.3483L8.11168 16.7447L8.58453 17.0984L9.0906 17.4062L9.62688 17.6652L10.1902 17.872L10.7773 18.0237C10.9782 18.065 11.1811 18.0962 11.3851 18.117C11.5929 18.1382 11.8017 18.1489 12.0106 18.1487C12.2216 18.1487 12.4304 18.138 12.636 18.117C12.8401 18.0962 13.0429 18.065 13.2439 18.0237L13.831 17.872L14.3943 17.6652L14.9305 17.4062L15.4367 17.0984L15.9095 16.7447L16.3459 16.3483L16.7427 15.9124L17.0967 15.44L17.4051 14.9344L17.6642 14.3988L17.8712 13.836C17.9312 13.6442 17.9821 13.4484 18.0231 13.2493L18.1164 12.6419C18.1376 12.4364 18.1482 12.2279 18.1482 12.017C18.1482 11.8062 18.1376 11.5977 18.1164 11.3922C18.0956 11.1883 18.0644 10.9857 18.0231 10.7849C17.9821 10.585 17.9312 10.3901 17.8712 10.1983L17.6642 9.6355L17.4051 9.09981L17.0967 8.59421L16.7427 8.1219L16.3459 7.68595L15.9095 7.2896L15.4367 6.93593L14.9305 6.628L14.3943 6.36905L13.831 6.16221L13.2439 6.0106L12.636 5.91733C12.4282 5.89612 12.2195 5.88557 12.0106 5.88558ZM12.0106 8.00197C12.1501 8.00197 12.2878 8.00888 12.4235 8.02257L12.8233 8.08308L13.2095 8.18148L13.5793 8.31581L13.9309 8.4842L14.2615 8.68448L14.5706 8.91491L14.8556 9.1734L15.1143 9.45803L15.3449 9.76681L15.5455 10.0979L15.7138 10.4493C15.7644 10.5695 15.8093 10.6928 15.8484 10.8188C15.8874 10.9448 15.9203 11.0736 15.9468 11.2047C15.9733 11.3359 15.9929 11.4694 16.0073 11.6049L16.0279 12.0175C16.0279 12.1569 16.021 12.2945 16.0073 12.4302C15.9936 12.5658 15.9735 12.6993 15.9468 12.8304C15.9201 12.9614 15.8872 13.0902 15.8484 13.2163L15.7138 13.5858L15.5455 13.9372L15.3449 14.2682L15.1143 14.5771L14.8556 14.8617L14.5706 15.1202L14.2615 15.3506L13.9309 15.5509L13.5793 15.7193L13.2095 15.8536L12.8233 15.952L12.4235 16.0125C12.2863 16.0262 12.1484 16.0331 12.0105 16.0331C11.8726 16.0331 11.7347 16.0262 11.5975 16.0125L11.1977 15.952C11.0664 15.9254 10.9376 15.8925 10.8114 15.8536L10.4416 15.7193L10.09 15.5509L9.75936 15.3506L9.45028 15.1202L9.16533 14.8617L8.90661 14.5771L8.67595 14.2682L8.47543 13.9372L8.30705 13.5858L8.1725 13.2163L8.07408 12.8304L8.01358 12.4302C7.99981 12.293 7.99293 12.1553 7.99296 12.0175C7.99293 11.8797 7.99981 11.742 8.01358 11.6049C8.02718 11.4694 8.0474 11.3358 8.07408 11.2047C8.1005 11.0746 8.13336 10.9458 8.17258 10.8188L8.30713 10.4493L8.47551 10.098L8.67603 9.7669L8.90668 9.45812L9.16541 9.17348L9.45035 8.91498L9.75943 8.68457L10.09 8.48426L10.4416 8.31588C10.5627 8.26506 10.6861 8.22023 10.8115 8.18156L11.1978 8.08315C11.3291 8.05655 11.4627 8.03625 11.5976 8.02265C11.7349 8.0089 11.8727 8.00195 12.0106 8.00197Z" fill="url(#paint0_radial_88_179)"/>
<path d="M18.397 4.14136C18.3484 4.14136 18.2997 4.14382 18.2512 4.14874C18.2027 4.15364 18.1545 4.16097 18.1067 4.17072C18.059 4.18047 18.0117 4.19261 17.9652 4.20709C17.9185 4.22159 17.8729 4.23842 17.8279 4.25752C17.783 4.27666 17.7392 4.29804 17.6964 4.32157C17.6535 4.34507 17.612 4.37071 17.5719 4.39839C17.5315 4.42609 17.4927 4.45581 17.4555 4.48742C17.4182 4.51901 17.3825 4.55244 17.3485 4.58761C17.3147 4.62279 17.2825 4.65967 17.2522 4.69809C17.2219 4.73652 17.1935 4.77644 17.1672 4.81772C17.1409 4.85897 17.1167 4.90152 17.0945 4.94521C17.0725 4.98892 17.0525 5.03372 17.0349 5.07946C17.0172 5.12516 17.0019 5.17174 16.9887 5.21899C16.9757 5.26626 16.965 5.31414 16.9569 5.36247C16.9485 5.41079 16.9427 5.45949 16.9392 5.50841C16.9367 5.54304 16.9355 5.57777 16.9355 5.61251C16.9355 5.66157 16.9379 5.71061 16.9429 5.75944C16.9477 5.80824 16.955 5.85676 16.9647 5.90482C16.9744 5.95289 16.9864 6.00044 17.0007 6.04729C17.0152 6.09416 17.0319 6.14027 17.0509 6.18546C17.0699 6.23066 17.091 6.27487 17.1145 6.31794C17.1379 6.36099 17.1634 6.40284 17.1909 6.44334C17.2184 6.48381 17.2479 6.52286 17.2792 6.56036C17.3107 6.59789 17.3439 6.63382 17.3789 6.66801C17.4139 6.70217 17.4504 6.73456 17.4887 6.76504C17.5269 6.79554 17.5665 6.82409 17.6075 6.85061C17.6485 6.87712 17.6909 6.90156 17.7342 6.92381C17.7777 6.94607 17.8222 6.96614 17.8675 6.98392C17.913 7.00171 17.9592 7.01717 18.0062 7.03029C18.0532 7.04339 18.1007 7.05412 18.1487 7.06242C18.1967 7.07077 18.2452 7.07671 18.2937 7.08019C18.3282 7.08266 18.3627 7.08387 18.3972 7.08389C18.4459 7.08389 18.4947 7.08146 18.5432 7.07657C18.5915 7.07167 18.6399 7.06434 18.6875 7.05459C18.7354 7.04486 18.7825 7.03271 18.8292 7.01822C18.8757 7.00372 18.9215 6.98689 18.9664 6.96779C19.0112 6.94867 19.0552 6.92732 19.0979 6.90381C19.1407 6.88029 19.1822 6.85462 19.2225 6.82692C19.2627 6.79924 19.3015 6.76956 19.3389 6.73797C19.376 6.70636 19.4117 6.67291 19.4457 6.63771C19.4797 6.60252 19.5119 6.56564 19.542 6.52722C19.5724 6.48879 19.6007 6.44887 19.627 6.40759C19.6534 6.36632 19.6777 6.32374 19.6997 6.28004C19.7219 6.23631 19.7419 6.19151 19.7595 6.14579C19.7772 6.10007 19.7925 6.05351 19.8055 6.00624C19.8185 5.95899 19.8292 5.91111 19.8375 5.86277C19.8459 5.81446 19.8517 5.76574 19.855 5.71684C19.8575 5.68219 19.8589 5.64747 19.8589 5.61274C19.8589 5.56369 19.8564 5.51467 19.8515 5.46587C19.8467 5.41707 19.8394 5.36856 19.8297 5.32049C19.82 5.27242 19.8079 5.22487 19.7935 5.17802C19.779 5.13116 19.7624 5.08504 19.7434 5.03986C19.7244 4.99466 19.7032 4.95044 19.6799 4.90737C19.6565 4.86432 19.631 4.82247 19.6035 4.78197C19.5759 4.74147 19.5464 4.70241 19.515 4.66487C19.4835 4.62736 19.4504 4.59142 19.4155 4.55724C19.3805 4.52307 19.3439 4.49069 19.3057 4.46021C19.2675 4.42972 19.2279 4.40119 19.1869 4.37471C19.1459 4.34819 19.1035 4.32376 19.06 4.30151C19.0165 4.27924 18.972 4.25917 18.9267 4.24139C18.8814 4.22361 18.835 4.20814 18.788 4.19502C18.7412 4.18189 18.6935 4.17114 18.6455 4.16281C18.5975 4.15449 18.5492 4.14857 18.5005 4.14512C18.466 4.14266 18.4315 4.14136 18.397 4.14136Z" fill="url(#paint1_radial_88_179)"/>
<path d="M10.8467 0.021708C10.1792 0.0206315 9.58347 0.0233992 9.04834 0.030934L7.61364 0.0693773C7.18861 0.08783 6.81309 0.111894 6.47602 0.143033C6.30749 0.158564 6.14849 0.17594 5.99779 0.195085C5.85437 0.21316 5.71137 0.234207 5.56884 0.25821C5.43312 0.281277 5.30434 0.306187 5.18086 0.33325C5.05739 0.360315 4.93944 0.389532 4.82564 0.420902C4.71441 0.451577 4.60402 0.485319 4.49466 0.522085C4.38747 0.558222 4.28291 0.596512 4.17964 0.637415C3.97312 0.719223 3.77169 0.811023 3.56424 0.913898C3.40462 0.993092 3.25716 1.07328 3.11707 1.15817C2.97699 1.24305 2.84427 1.3327 2.71434 1.43035C2.58052 1.5314 2.45154 1.6387 2.32784 1.75189C2.19851 1.86968 2.06642 1.99923 1.92917 2.14401C1.75672 2.32493 1.60687 2.49361 1.47385 2.65914C1.40735 2.74188 1.34507 2.82369 1.2864 2.90596C1.22839 2.98703 1.17293 3.06991 1.1201 3.15444C1.06782 3.23826 1.0183 3.32361 0.970937 3.41141C0.922837 3.50073 0.877377 3.59144 0.834617 3.68343C0.747121 3.87134 0.665467 4.07371 0.583967 4.29961C0.523506 4.46659 0.469364 4.63583 0.421659 4.80689C0.372991 4.98174 0.329704 5.16466 0.291106 5.36248C0.252509 5.56031 0.218832 5.77306 0.189231 6.00833C0.157333 6.26623 0.13185 6.52488 0.112806 6.78404C0.0912779 7.06898 0.0734402 7.38253 0.0588317 7.73151L0.0242329 8.89189L0.00562617 10.3064L0.000244141 12.0161L0.0160059 14.5024L0.0652134 16.3861L0.103118 17.1218L0.150481 17.7317C0.165663 17.896 0.184659 18.0598 0.207454 18.2233C0.228212 18.3685 0.250511 18.4955 0.274499 18.6055C0.323174 18.829 0.380731 19.0505 0.447032 19.2695C0.510516 19.4792 0.583114 19.6858 0.664621 19.8892C0.744737 20.0883 0.832387 20.2803 0.927727 20.4652C1.02307 20.65 1.12609 20.8277 1.23681 20.9983C1.34753 21.1688 1.46593 21.3325 1.59234 21.4892C1.71859 21.6458 1.85289 21.7957 1.99469 21.9385C2.13669 22.0815 2.28647 22.2175 2.44432 22.3468C2.60402 22.4777 2.77006 22.6007 2.94177 22.7152C3.10116 22.8217 3.25886 22.9193 3.41771 23.0088C3.57654 23.0985 3.73677 23.1797 3.90147 23.2537C4.06616 23.3275 4.23501 23.394 4.41139 23.4538C4.58776 23.5137 4.77152 23.5668 4.96574 23.614C5.15996 23.6613 5.36554 23.7027 5.58314 23.7388C5.80072 23.775 6.03331 23.806 6.28181 23.8327C6.53031 23.8593 6.79541 23.8813 7.08027 23.8998C7.36514 23.9183 7.66961 23.933 7.99676 23.9448C8.50214 23.9632 9.26716 23.9738 10.1494 23.978L13.0053 23.9722L15.7097 23.9343L16.738 23.9053L17.4079 23.871C17.5517 23.8592 17.6924 23.8453 17.8282 23.8292C17.964 23.813 18.0979 23.7945 18.2284 23.7733C18.3587 23.7523 18.4862 23.7288 18.6114 23.7027C18.7352 23.6768 18.8584 23.648 18.9807 23.6163C19.1019 23.5855 19.2214 23.5505 19.3397 23.5133C19.4579 23.4763 19.575 23.4362 19.6914 23.393C19.8084 23.3497 19.9242 23.3035 20.039 23.2547C20.1545 23.2053 20.2699 23.1528 20.3857 23.097C20.5635 23.0113 20.7067 22.9398 20.8324 22.8702C20.9507 22.8053 21.0645 22.7328 21.1734 22.653C21.2807 22.574 21.3874 22.484 21.5104 22.3707C21.6334 22.2573 21.7729 22.1208 21.9454 21.9482C22.0972 21.7965 22.225 21.6647 22.3354 21.5448C22.4457 21.425 22.5387 21.3172 22.6202 21.2132C22.6979 21.1145 22.7702 21.0118 22.837 20.9055C22.9022 20.8017 22.9622 20.6938 23.0232 20.5743C23.1152 20.3945 23.197 20.2278 23.2702 20.067C23.3414 19.9122 23.4064 19.7543 23.465 19.5943C23.5229 19.4355 23.573 19.274 23.6152 19.1103C23.6585 18.942 23.6959 18.7642 23.7282 18.5692C23.7604 18.3742 23.7877 18.162 23.8114 17.925C23.835 17.6882 23.8552 17.4262 23.8729 17.132L23.9199 16.1442L23.96 14.9158L23.9889 13.5472L23.9999 12.1162L23.9742 9.30561L23.9399 8.04674L23.893 6.96588L23.8345 6.12319C23.8134 5.88869 23.7904 5.70401 23.7662 5.57914C23.7392 5.44118 23.7092 5.30386 23.676 5.16726C23.6437 5.03436 23.6082 4.90226 23.5695 4.77108C23.5319 4.64326 23.4909 4.51643 23.4467 4.39071C23.403 4.26654 23.3567 4.14498 23.3082 4.02604C23.2599 3.90709 23.2074 3.79093 23.1529 3.67721C23.0982 3.56349 23.041 3.45254 22.981 3.34413C22.9209 3.23573 22.8584 3.13001 22.7929 3.02689C22.7275 2.92379 22.6594 2.82329 22.5884 2.72549C22.5179 2.62801 22.4442 2.53276 22.3677 2.43986C22.2915 2.34749 22.2125 2.25754 22.1307 2.17014C22.049 2.08288 21.9645 1.99821 21.8775 1.91628C21.7904 1.83431 21.7007 1.75496 21.6082 1.67823C21.5152 1.60124 21.42 1.52717 21.3224 1.4561C21.2239 1.38432 21.1232 1.31555 21.0204 1.2499C20.9162 1.18331 20.8102 1.11982 20.7022 1.05952C20.5925 0.998214 20.4809 0.940062 20.3679 0.885144C20.18 0.793879 20.0064 0.712919 19.836 0.641107C19.6684 0.569837 19.4975 0.506539 19.324 0.451427C19.1495 0.396452 18.9679 0.349322 18.768 0.308648C18.568 0.267975 18.35 0.234068 18.1034 0.205235C17.8567 0.176403 17.5812 0.153107 17.266 0.133732C16.951 0.114356 16.5966 0.0991317 16.192 0.0868298L14.8168 0.0560757L13.0763 0.035547L10.8475 0.0218605L10.8467 0.021708ZM12.0042 2.13624L15.2183 2.15454L16.4308 2.17791C16.7647 2.18729 17.0195 2.19829 17.1689 2.21098C17.3635 2.22736 17.5487 2.24788 17.726 2.27249C17.896 2.29598 18.0654 2.32518 18.2334 2.36006C18.3949 2.39389 18.5489 2.43233 18.6964 2.47569C18.8437 2.51906 18.9845 2.56766 19.1195 2.62139C19.2547 2.67514 19.3839 2.73426 19.5082 2.79901C19.6315 2.86326 19.7514 2.93396 19.8672 3.01083C19.9825 3.08733 20.0937 3.16976 20.2017 3.25856C20.3095 3.34736 20.4142 3.44254 20.5164 3.54434C20.6244 3.65176 20.7239 3.76116 20.8155 3.87403C20.9069 3.98621 20.9915 4.10378 21.0687 4.22609C21.1469 4.35016 21.2172 4.47894 21.2795 4.61168C21.3432 4.74701 21.4004 4.89001 21.4517 5.04201C21.5032 5.19403 21.5489 5.35556 21.5894 5.52818C21.6319 5.71118 21.6674 5.89571 21.696 6.08138C21.7267 6.27821 21.753 6.48811 21.7754 6.71284C21.7975 6.93758 21.816 7.17724 21.8312 7.43366C21.8434 7.63933 21.854 7.91074 21.863 8.23128L21.8855 9.32423L21.9027 12.0014L21.8832 14.6761L21.8597 15.7659L21.8272 16.5585C21.8049 16.9297 21.7812 17.2417 21.7529 17.5132C21.7387 17.649 21.7232 17.7747 21.7062 17.8925C21.6902 18.0038 21.6712 18.1147 21.6494 18.225C21.6294 18.3257 21.6062 18.4257 21.5797 18.525C21.5545 18.6195 21.526 18.7133 21.4945 18.8062C21.4627 18.8993 21.4282 18.9915 21.3909 19.0825C21.3514 19.1788 21.3097 19.274 21.2659 19.3683C21.2269 19.4525 21.1859 19.5345 21.1425 19.6142C21.0997 19.6932 21.054 19.7705 21.006 19.8463C20.9584 19.9215 20.9084 19.9945 20.856 20.0652C20.804 20.1355 20.7495 20.204 20.6925 20.2705C20.6359 20.3368 20.5767 20.4008 20.5152 20.4628C20.4537 20.5247 20.3899 20.5843 20.3237 20.642C20.2577 20.6997 20.189 20.7552 20.118 20.8085C20.0472 20.8618 19.9737 20.913 19.8979 20.962C19.8219 21.0112 19.7437 21.0582 19.6629 21.1032C19.582 21.148 19.4987 21.1908 19.413 21.2317C19.3257 21.2732 19.2374 21.312 19.1477 21.3482C19.0552 21.3855 18.9617 21.4202 18.8672 21.4523C18.6749 21.5178 18.4722 21.5753 18.2587 21.6248C18.0364 21.6763 17.8119 21.7183 17.5859 21.7508C17.4989 21.7635 17.2992 21.7755 17.0132 21.7865L15.9233 21.8168L12.8332 21.857L9.59892 21.862L8.32876 21.8485L7.50399 21.8228L6.89582 21.78C6.70699 21.7642 6.53137 21.7465 6.36684 21.7263C6.20231 21.7063 6.04907 21.684 5.90491 21.6587C5.76829 21.6352 5.63251 21.6068 5.49779 21.5742C5.37496 21.5443 5.25337 21.5095 5.13336 21.4698C5.01764 21.4313 4.90699 21.389 4.79936 21.3425C4.69171 21.296 4.58714 21.245 4.48357 21.1893C4.38001 21.1337 4.27752 21.0733 4.17387 21.0073C4.09569 20.9577 4.02011 20.9073 3.94737 20.8542C3.87464 20.8008 3.80436 20.7477 3.73671 20.692C3.66904 20.6363 3.60407 20.579 3.54141 20.52C3.47916 20.4612 3.41906 20.4002 3.36119 20.3372C3.30352 20.2742 3.24839 20.2095 3.19549 20.1425C3.14239 20.0752 3.09179 20.0058 3.04381 19.9348C2.99509 19.8627 2.94901 19.7888 2.90564 19.7135C2.86181 19.6373 2.82014 19.5587 2.78054 19.4773C2.74027 19.3947 2.70271 19.3107 2.66791 19.2255C2.63254 19.1387 2.59901 19.0492 2.56749 18.9568C2.50444 18.7718 2.44909 18.575 2.40096 18.3652C2.35282 18.1553 2.31176 17.9323 2.27701 17.6947C2.24226 17.4572 2.21427 17.2052 2.19197 16.9375C2.17552 16.7403 2.16246 16.4332 2.15246 16.0456L2.13154 14.6675L2.13922 11.1541L2.19974 7.79694L2.24587 6.61413L2.27201 6.22314C2.28109 6.11874 2.29047 6.04139 2.30007 5.99494C2.33176 5.84218 2.36366 5.70001 2.39664 5.56693C2.42746 5.44136 2.46174 5.31669 2.49944 5.19303C2.53527 5.07631 2.57302 4.96698 2.61339 4.86341C2.65231 4.76308 2.69569 4.66454 2.74341 4.56809C2.78999 4.47429 2.84006 4.38448 2.89441 4.29706C2.94877 4.20964 3.00744 4.12484 3.07141 4.04049C3.13537 3.95614 3.20426 3.87288 3.27922 3.78846C3.35419 3.70404 3.43516 3.61878 3.52296 3.53089C3.62529 3.42798 3.73184 3.32934 3.84234 3.23526C3.94669 3.14649 4.05549 3.06311 4.16834 2.98546C4.27929 2.90856 4.39309 2.84014 4.51157 2.77724C4.63006 2.71436 4.75322 2.65753 4.88277 2.60641C5.01232 2.55528 5.14842 2.50953 5.29257 2.46801C5.44404 2.42553 5.59717 2.38928 5.75159 2.35936C5.91397 2.32754 6.08644 2.29978 6.27057 2.27556C6.45472 2.25134 6.65062 2.23043 6.86007 2.21228C7.00616 2.19968 7.25787 2.18844 7.58934 2.17899L8.79569 2.15516L12.0048 2.13554L12.0042 2.13624Z" fill="url(#paint2_radial_88_179)"/>
</g>
<defs>
<radialGradient id="paint0_radial_88_179" cx="0" cy="0" r="1" gradientUnits="userSpaceOnUse" gradientTransform="translate(3.82378 25.7244) rotate(-9.53101) scale(50.723 30.7885)">
<stop stop-color="#FED576"/>
<stop offset="0.263" stop-color="#F47133"/>
<stop offset="0.609" stop-color="#BC3081"/>
<stop offset="1" stop-color="#4C63D2"/>
</radialGradient>
<radialGradient id="paint1_radial_88_179" cx="0" cy="0" r="1" gradientUnits="userSpaceOnUse" gradientTransform="translate(3.82381 25.7244) rotate(-9.53102) scale(50.723 30.7885)">
<stop stop-color="#FED576"/>
<stop offset="0.263" stop-color="#F47133"/>
<stop offset="0.609" stop-color="#BC3081"/>
<stop offset="1" stop-color="#4C63D2"/>
</radialGradient>
<radialGradient id="paint2_radial_88_179" cx="0" cy="0" r="1" gradientUnits="userSpaceOnUse" gradientTransform="translate(3.82381 25.7243) rotate(-9.53101) scale(50.723 30.7885)">
<stop stop-color="#FED576"/>
<stop offset="0.263" stop-color="#F47133"/>
<stop offset="0.609" stop-color="#BC3081"/>
<stop offset="1" stop-color="#4C63D2"/>
</radialGradient>
<clipPath id="clip0_88_179">
<rect width="24" height="24" fill="white"/>
</clipPath>
</defs>
</svg>
